<svg width="301" height="311" viewBox="0 0 301 311" fill="none" xmlns="http://www.w3.org/2000/svg">
<path d="M268.948 1H9.18661C4.66527 1 1 4.66528 1 9.18662V192.557C1 197.078 4.66527 200.743 9.18661 200.743H268.948C273.47 200.743 277.135 197.078 277.135 192.557V9.18662C277.135 4.66528 273.47 1 268.948 1Z" fill="#FF5722" stroke="#2E353A" stroke-width="1.50103" stroke-miterlimit="10"/>
<path d="M271.962 20.1858H6.16473V188.497H271.962V20.1858Z" fill="white" stroke="#2E353A" stroke-width="1.50103" stroke-miterlimit="10"/>
<path d="M20.0686 152.879H99.1473" stroke="#2E353A" stroke-linecap="round" stroke-linejoin="round"/>
<path d="M33.1605 160.731H99.1473" stroke="#2E353A" stroke-linecap="round" stroke-linejoin="round"/>
<path d="M20.0686 160.731H26.3467" stroke="#2E353A" stroke-linecap="round" stroke-linejoin="round"/>
<path d="M20.0686 168.583H99.1473" stroke="#2E353A" stroke-linecap="round" stroke-linejoin="round"/>
<path d="M93.3798 176.443H99.1472" stroke="#2E353A" stroke-linecap="round" stroke-linejoin="round"/>
<path d="M20.0686 176.443H86.5744" stroke="#2E353A" stroke-linecap="round" stroke-linejoin="round"/>
<path d="M203.874 33.9473H22.2701C19.6396 33.9473 17.5071 36.0798 17.5071 38.7103V90.6509C17.5071 93.2814 19.6396 95.4139 22.2701 95.4139H203.874C206.504 95.4139 208.637 93.2814 208.637 90.6509V38.7103C208.637 36.0798 206.504 33.9473 203.874 33.9473Z" fill="#2E353A"/>
<path d="M203.882 34.3659C204.452 34.3659 205.017 34.4783 205.544 34.6968C206.07 34.9152 206.549 35.2353 206.951 35.6388C207.354 36.0424 207.673 36.5214 207.891 37.0484C208.108 37.5754 208.219 38.1402 208.218 38.7103V90.6509C208.219 91.2211 208.108 91.7858 207.891 92.3129C207.673 92.8399 207.354 93.3189 206.951 93.7224C206.549 94.1259 206.07 94.4461 205.544 94.6645C205.017 94.8829 204.452 94.9954 203.882 94.9954H22.2366C21.0844 94.9954 19.9794 94.5377 19.1646 93.7229C18.3499 92.9082 17.8922 91.8032 17.8922 90.6509V38.7103C17.8922 37.5581 18.3499 36.4531 19.1646 35.6383C19.9794 34.8236 21.0844 34.3659 22.2366 34.3659H203.882ZM203.882 33.5288H22.2366C20.8631 33.531 19.5464 34.0776 18.5752 35.0489C17.6039 36.0201 17.0573 37.3368 17.0551 38.7103V90.6509C17.0573 92.0245 17.6039 93.3411 18.5752 94.3124C19.5464 95.2836 20.8631 95.8302 22.2366 95.8324H203.882C205.255 95.8302 206.571 95.2833 207.541 94.3119C208.511 93.3404 209.055 92.0237 209.055 90.6509V38.7103C209.055 37.3375 208.511 36.0209 207.541 35.0494C206.571 34.0779 205.255 33.531 203.882 33.5288Z" fill="#2E353A"/>
<path d="M170.023 34.3659C169.079 35.3517 167.945 36.1361 166.69 36.6721C165.435 37.208 164.084 37.4843 162.719 37.4843C161.354 37.4843 160.004 37.208 158.748 36.6721C157.493 36.1361 156.36 35.3517 155.416 34.3659H151.046L151.163 34.5668L149.581 36.174C149.288 36.4702 149.123 36.8703 149.123 37.2873C149.123 37.7043 149.288 38.1044 149.581 38.4006L151.666 40.4849C151.811 40.6322 151.984 40.7492 152.176 40.829C152.367 40.9088 152.572 40.9499 152.779 40.9499C152.986 40.9499 153.191 40.9088 153.382 40.829C153.573 40.7492 153.747 40.6322 153.892 40.4849L155.499 38.8777C156.785 39.6917 158.201 40.2805 159.685 40.6189V42.8957C159.685 43.3131 159.851 43.7134 160.146 44.0085C160.441 44.3036 160.841 44.4694 161.258 44.4694H164.205C164.622 44.4694 165.023 44.3036 165.318 44.0085C165.613 43.7134 165.779 43.3131 165.779 42.8957V40.6189C167.263 40.2805 168.678 39.6917 169.964 38.8777L171.571 40.4849C171.717 40.6322 171.89 40.7492 172.081 40.829C172.272 40.9088 172.477 40.9499 172.685 40.9499C172.892 40.9499 173.097 40.9088 173.288 40.829C173.479 40.7492 173.652 40.6322 173.798 40.4849L175.882 38.4006C176.176 38.1044 176.34 37.7043 176.34 37.2873C176.34 36.8703 176.176 36.4702 175.882 36.174L174.275 34.5668L174.392 34.3659H170.023Z" fill="#FF5722"/>
<path d="M95.4725 94.2169H93.1956C92.8573 92.7329 92.2685 91.3176 91.4545 90.0315L93.0617 88.4243C93.209 88.2787 93.3259 88.1053 93.4057 87.9142C93.4856 87.7231 93.5267 87.5181 93.5267 87.311C93.5267 87.1039 93.4856 86.8988 93.4057 86.7077C93.3259 86.5166 93.209 86.3433 93.0617 86.1977L90.9857 84.0966C90.8394 83.9491 90.6654 83.8319 90.4736 83.752C90.2818 83.6721 90.076 83.6309 89.8682 83.6309C89.6604 83.6309 89.4547 83.6721 89.2629 83.752C89.0711 83.8319 88.897 83.9491 88.7507 84.0966L87.1436 85.7038C85.857 84.8907 84.4418 84.302 82.9582 83.9627V81.6858C82.956 81.2677 82.7883 80.8674 82.4918 80.5725C82.1954 80.2777 81.7942 80.1121 81.3761 80.1121H78.4296C78.0114 80.1121 77.6103 80.2777 77.3138 80.5725C77.0174 80.8674 76.8497 81.2677 76.8475 81.6858V83.9627C75.3639 84.302 73.9486 84.8907 72.6621 85.7038L71.0549 84.0966C70.9094 83.9493 70.736 83.8324 70.5449 83.7526C70.3538 83.6727 70.1487 83.6316 69.9416 83.6316C69.7345 83.6316 69.5295 83.6727 69.3384 83.7526C69.1473 83.8324 68.9739 83.9493 68.8283 84.0966L66.7105 86.1809C66.5632 86.3265 66.4463 86.4999 66.3664 86.691C66.2866 86.8821 66.2455 87.0871 66.2455 87.2942C66.2455 87.5013 66.2866 87.7064 66.3664 87.8975C66.4463 88.0886 66.5632 88.262 66.7105 88.4076L68.3177 90.0147C67.5037 91.3008 66.9149 92.7162 66.5766 94.2001H64.2997C64.0264 94.1994 63.7577 94.271 63.521 94.4078C63.2843 94.5445 63.088 94.7414 62.952 94.9786H69.9751C70.4876 92.7367 71.7459 90.7352 73.5441 89.3017C75.3423 87.8681 77.5739 87.0875 79.8735 87.0875C82.1732 87.0875 84.4048 87.8681 86.203 89.3017C88.0012 90.7352 89.2595 92.7367 89.772 94.9786H96.8453C96.7051 94.7408 96.5039 94.5448 96.2626 94.4109C96.0212 94.277 95.7484 94.21 95.4725 94.2169Z" fill="#FF5722"/>
<path d="M20.2611 76.1277H23.1825C23.6021 76.1277 24.0045 75.961 24.3012 75.6643C24.5979 75.3676 24.7646 74.9652 24.7646 74.5456V72.2771C26.2482 71.9378 27.6635 71.3491 28.95 70.536L30.5572 72.1432C30.7028 72.2905 30.8761 72.4074 31.0672 72.4872C31.2583 72.5671 31.4634 72.6082 31.6705 72.6082C31.8776 72.6082 32.0826 72.5671 32.2737 72.4872C32.4648 72.4074 32.6382 72.2905 32.7838 72.1432L34.9016 70.0421C35.0489 69.8965 35.1658 69.7232 35.2457 69.5321C35.3255 69.341 35.3666 69.1359 35.3666 68.9288C35.3666 68.7217 35.3255 68.5167 35.2457 68.3256C35.1658 68.1345 35.0489 67.9611 34.9016 67.8155L33.2944 66.2083C34.1084 64.9222 34.6972 63.5068 35.0355 62.0229H37.3124C37.7298 62.0229 38.13 61.8571 38.4252 61.562C38.7203 61.2669 38.8861 60.8666 38.8861 60.4492V57.486C38.8861 57.0686 38.7203 56.6683 38.4252 56.3732C38.13 56.0781 37.7298 55.9123 37.3124 55.9123H35.0355C34.694 54.4294 34.1054 53.0145 33.2944 51.7269L34.9016 50.1197C35.0489 49.9741 35.1658 49.8007 35.2457 49.6096C35.3255 49.4185 35.3666 49.2135 35.3666 49.0064C35.3666 48.7993 35.3255 48.5942 35.2457 48.4031C35.1658 48.212 35.0489 48.0386 34.9016 47.8931L32.8173 45.8087C32.521 45.5153 32.1209 45.3507 31.704 45.3507C31.287 45.3507 30.8869 45.5153 30.5907 45.8087L28.9835 47.441C27.6948 46.634 26.2801 46.0483 24.7981 45.7083V43.4315C24.8004 43.2194 24.76 43.0091 24.6794 42.813C24.5988 42.6169 24.4797 42.439 24.329 42.2898C24.1783 42.1407 23.9991 42.0234 23.8022 41.9448C23.6052 41.8663 23.3945 41.8281 23.1825 41.8326H20.236C19.8186 41.8326 19.4184 41.9984 19.1232 42.2936C18.8281 42.5887 18.6623 42.989 18.6623 43.4063V45.6832C18.4028 45.7418 18.1517 45.8171 17.9006 45.8924V49.5672C18.7876 49.2 19.7241 48.9659 20.6797 48.8725C22.2194 48.7019 23.7778 48.8856 25.2357 49.4096C26.6936 49.9336 28.0124 50.7839 29.0912 51.8957C30.1701 53.0074 30.9805 54.3512 31.4605 55.8241C31.9405 57.297 32.0774 58.8602 31.8608 60.3942C31.6441 61.9281 31.0795 63.3923 30.2103 64.6746C29.3411 65.957 28.1902 67.0236 26.8456 67.793C25.5009 68.5624 23.9982 69.0142 22.4522 69.1138C20.9062 69.2135 19.358 68.9584 17.9257 68.368V72.0511C18.1768 72.1264 18.4279 72.2018 18.6874 72.2604V74.5289C18.6852 74.7373 18.7242 74.9442 18.8022 75.1375C18.8802 75.3308 18.9957 75.5069 19.1419 75.6554C19.2881 75.804 19.4623 75.9222 19.6544 76.0033C19.8465 76.0843 20.0527 76.1266 20.2611 76.1277Z" fill="#FF5722"/>
<path d="M221.453 6.19824H89.3954V14.2844H221.453V6.19824Z" fill="white" stroke="#2E353A" stroke-width="1.50103" stroke-miterlimit="10"/>
<path d="M12.56 4.90918L8.75134 8.57557L12.7023 12.8112" stroke="#2E353A" stroke-width="1.50103" stroke-linecap="round" stroke-linejoin="round"/>
<path d="M8.75134 8.57556H17.2142" stroke="#2E353A" stroke-width="1.50103" stroke-linecap="round" stroke-linejoin="round"/>
<path d="M34.1483 4.90918L37.9654 8.57557L34.006 12.8112" stroke="#2E353A" stroke-width="1.50103" stroke-linecap="round" stroke-linejoin="round"/>
<path d="M37.9569 8.57556H29.4941" stroke="#2E353A" stroke-width="1.50103" stroke-linecap="round" stroke-linejoin="round"/>
<path d="M56.155 8.0984C55.9112 7.2475 55.4039 6.4958 54.706 5.95133C54.0082 5.40687 53.1556 5.09767 52.271 5.06818C51.6605 5.06777 51.0589 5.21411 50.5168 5.49488C49.9747 5.77564 49.508 6.18261 49.1561 6.68147C48.8042 7.18033 48.5774 7.75646 48.4948 8.36133C48.4121 8.9662 48.4761 9.58207 48.6813 10.157C48.8865 10.732 49.2269 11.2492 49.6738 11.6651C50.1207 12.081 50.6611 12.3833 51.2493 12.5467C51.8375 12.7101 52.4564 12.7296 53.0538 12.6037C53.6511 12.4779 54.2095 12.2102 54.6818 11.8234" stroke="#2E353A" stroke-width="1.50103" stroke-linecap="round" stroke-linejoin="round"/>
<path d="M53.5852 8.50859H56.5485V4.9845" stroke="#2E353A" stroke-width="1.50103" stroke-linecap="round" stroke-linejoin="round"/>
<path d="M76.3369 7.26135L72.8212 4.41528L69.4729 7.26135V13.4557H76.3369V7.26135Z" stroke="#2E353A" stroke-width="1.50103" stroke-linecap="round" stroke-linejoin="round"/>
<path d="M74.1606 8.93549H71.4819V13.2297H74.1606V8.93549Z" fill="#2E353A"/>
<path d="M69.4729 7.26135L67.4639 9.10292" stroke="#2E353A" stroke-width="1.50103" stroke-linecap="round" stroke-linejoin="round"/>
<path d="M76.3369 7.26135L78.2287 8.94388" stroke="#2E353A" stroke-width="1.50103" stroke-linecap="round" stroke-linejoin="round"/>
<path d="M257.966 7.67987H268.555" stroke="#2E353A" stroke-width="1.50103" stroke-linecap="round" stroke-linejoin="round"/>
<path d="M257.966 10.0656H268.555" stroke="#2E353A" stroke-width="1.50103" stroke-linecap="round" stroke-linejoin="round"/>
<path d="M257.966 12.4596H268.555" stroke="#2E353A" stroke-width="1.50103" stroke-linecap="round" stroke-linejoin="round"/>
<path d="M257.966 14.8453H268.555" stroke="#2E353A" stroke-width="1.50103" stroke-linecap="round" stroke-linejoin="round"/>
<g style="mix-blend-mode:multiply">
<path d="M277.135 55.6528H104.697C103.861 55.6528 103.032 55.8175 102.259 56.1377C101.486 56.4578 100.784 56.927 100.193 57.5185C99.6012 58.1101 99.1319 58.8123 98.8118 59.5852C98.4917 60.358 98.3269 61.1864 98.3269 62.0229V109.912C98.3269 110.749 98.4917 111.577 98.8118 112.35C99.1319 113.123 99.6012 113.825 100.193 114.416C100.784 115.008 101.486 115.477 102.259 115.797C103.032 116.117 103.861 116.282 104.697 116.282H277.135V55.6528Z" fill="#FF5722"/>
</g>
<path d="M266.504 176.217C266.211 165.335 267.056 146.676 257.48 139.009C249.11 132.312 242.53 141.411 240.17 148.778C234.444 166.666 237.139 186.404 237.148 204.862C237.148 205.138 237.148 205.423 237.148 205.699C236.696 219.276 235.063 233.984 236.545 247.553C236.545 247.553 235.089 233.975 224.416 239.793C213.743 245.611 229.756 276.181 229.756 276.181C229.756 276.181 217.142 266.973 211.341 274.724C205.54 282.475 218.615 291.215 218.615 291.215C218.615 291.215 206.486 287.824 206.486 291.215C206.486 294.605 210.37 297.526 221.553 298.974H281.705C281.705 298.974 291.407 293.642 289.465 287.824C287.523 282.007 277.336 285.397 277.336 285.397C277.336 285.397 292.864 266.479 291.893 258.225C290.922 249.972 270.957 259.648 270.957 259.648C270.957 259.648 286.477 220.356 283.572 202.895C281.278 189.141 270.597 198.55 264.788 203.84C266.163 194.7 266.737 185.457 266.504 176.217Z" fill="#FF5722"/>
<path opacity="0.5" d="M266.504 176.217C266.211 165.335 267.056 146.676 257.48 139.009C249.11 132.312 242.53 141.411 240.17 148.778C234.444 166.666 237.139 186.404 237.148 204.862C237.148 205.138 237.148 205.423 237.148 205.699C236.696 219.276 235.063 233.984 236.545 247.553C236.545 247.553 235.089 233.975 224.416 239.793C213.743 245.611 229.756 276.181 229.756 276.181C229.756 276.181 217.142 266.973 211.341 274.724C205.54 282.475 218.615 291.215 218.615 291.215C218.615 291.215 206.486 287.824 206.486 291.215C206.486 294.605 210.37 297.526 221.553 298.974H281.705C281.705 298.974 291.407 293.642 289.465 287.824C287.523 282.007 277.336 285.397 277.336 285.397C277.336 285.397 292.864 266.479 291.893 258.225C290.922 249.972 270.957 259.648 270.957 259.648C270.957 259.648 286.477 220.356 283.572 202.895C281.278 189.141 270.597 198.55 264.788 203.84C266.163 194.7 266.737 185.457 266.504 176.217Z" fill="white"/>
<path d="M247.209 298.455L251.579 165.059" stroke="white" stroke-width="1.72695" stroke-linecap="round" stroke-linejoin="round"/>
<path d="M249.637 242.672L272.439 221.327" stroke="white" stroke-width="1.72695" stroke-linecap="round" stroke-linejoin="round"/>
<path d="M260.31 232.971L265.156 219.385" stroke="white" stroke-width="1.72695" stroke-linecap="round" stroke-linejoin="round"/>
<path d="M230.719 259.163L248.18 278.081" stroke="white" stroke-width="1.72695" stroke-linecap="round" stroke-linejoin="round"/>
<path d="M277.286 269.836L248.18 284.878" stroke="white" stroke-width="1.72695" stroke-linecap="round" stroke-linejoin="round"/>
<path d="M261.766 278.566L272.439 278.081" stroke="white" stroke-width="1.72695" stroke-linecap="round" stroke-linejoin="round"/>
<path d="M154.336 310.392C235.336 310.392 301 307.03 301 302.883C301 298.737 235.336 295.375 154.336 295.375C73.3353 295.375 7.67151 298.737 7.67151 302.883C7.67151 307.03 73.3353 310.392 154.336 310.392Z" fill="#FF5722"/>
<path opacity="0.3" d="M154.336 310.392C235.336 310.392 301 307.03 301 302.883C301 298.737 235.336 295.375 154.336 295.375C73.3353 295.375 7.67151 298.737 7.67151 302.883C7.67151 307.03 73.3353 310.392 154.336 310.392Z" fill="white"/>
<path d="M158.889 297.727C158.197 297.735 157.516 297.911 156.906 298.238C155.859 298.79 151.339 300.029 148.426 301.059C143.881 302.674 140.331 301.804 140.7 302.992C141.068 304.181 148.158 306.567 152.26 306.625C156.361 306.684 158.337 305.663 160.296 305.704C162.254 305.746 160.815 306.692 164.079 307.061C167.344 307.429 168.407 307.437 169.545 305.654C170.684 303.871 171.328 303.411 170.968 301.151V301.075C170.787 300.103 170.267 299.227 169.501 298.602C168.734 297.977 167.772 297.643 166.783 297.66L158.889 297.727Z" fill="#2E353A"/>
<path d="M184.295 295.551C183.687 295.535 183.088 295.704 182.579 296.036C181.683 296.597 177.791 297.777 175.288 298.79C171.379 300.381 168.265 299.318 168.591 300.607C168.918 301.896 173.136 303.654 176.711 303.854C178.644 303.975 180.585 303.902 182.503 303.637C186.371 303.419 183.91 304.792 185.299 305.353C186.27 305.66 187.286 305.805 188.304 305.78C192.381 305.997 192.875 306.324 193.812 304.44C194.75 302.557 195.286 302.088 194.892 299.644V299.569C194.532 297.401 192.917 295.802 191.142 295.752L184.295 295.551Z" fill="#2E353A"/>
<path d="M147.807 168.064C147.807 168.064 148.51 192.674 148.51 200.936C148.51 209.198 150.619 246.54 153.432 260.075C156.244 273.611 157.826 292.947 157.826 295.057C157.826 297.166 157.123 297.694 158.529 299.1C159.936 300.506 165.226 303.143 167.151 302.264C169.077 301.385 170.14 298.079 170.14 298.079C170.14 298.079 170.14 279.797 170.667 267.843C171.194 255.89 170.316 240.22 170.316 240.22C170.316 240.22 177.171 271.87 179.105 278.198C181.038 284.526 182.621 296.003 182.972 298.288C183.324 300.573 184.864 300.648 186.831 300.648C189.192 300.648 192.113 300.347 193.168 298.589C194.222 296.831 191.937 278.374 191.937 270.966C191.937 263.558 186.136 217.803 186.664 206.511C187.191 195.219 190.531 175.748 189.476 169.947C188.849 166.535 188.496 163.078 188.421 159.609C188.421 159.609 152.201 155.424 147.807 168.064Z" fill="#2E353A" stroke="#2E353A" stroke-miterlimit="10"/>
<path d="M149.924 170.826C150.51 173.01 151.272 175.143 152.201 177.205C152.874 178.628 153.982 179.801 155.365 180.553" stroke="white" stroke-miterlimit="10"/>
<path d="M161.3 293.056C161.476 295.539 161.429 298.032 161.158 300.506" stroke="white" stroke-miterlimit="10"/>
<path d="M156.068 196.349C156.562 215.484 157.5 248.038 158.354 255.856C159.308 264.52 160.153 277.78 160.731 285.824" stroke="white" stroke-miterlimit="10"/>
<path d="M155.307 171.094C155.131 171.621 155.717 182.127 155.717 182.127C155.717 182.127 155.801 185.676 155.943 191.234" stroke="white" stroke-miterlimit="10"/>
<path d="M106.673 101.734C106.673 101.734 106.497 97.5485 107.376 98.5697C108.255 99.5909 108.43 101.558 108.782 103.492C108.782 103.492 109.309 99.8002 109.837 100.855C110.41 102.171 110.593 103.623 110.364 105.04C110.253 107.049 110.678 109.051 111.595 110.841C112.298 111.896 107.903 108.941 106.673 101.734Z" fill="white" stroke="#2E353A" stroke-miterlimit="10"/>
<path d="M238.981 107.242C238.981 107.242 241.492 103.843 240.17 104.228C238.847 104.613 237.658 106.12 236.252 107.526C236.252 107.526 237.876 104.178 236.846 104.747C235.626 105.525 234.655 106.638 234.051 107.953C233.022 109.681 231.551 111.103 229.79 112.072C228.618 112.557 233.933 112.532 238.981 107.242Z" fill="white" stroke="#2E353A" stroke-linecap="round" stroke-linejoin="round"/>
<path d="M241.66 51.0991V48.9813C241.661 48.8322 241.632 48.6843 241.576 48.5463C241.52 48.4082 241.437 48.2826 241.332 48.1768C241.227 48.071 241.102 47.987 240.964 47.9297C240.826 47.8724 240.679 47.8429 240.53 47.8429H238.855C238.612 46.7729 238.19 45.7515 237.608 44.821L238.763 43.6659C238.976 43.4525 239.095 43.1635 239.095 42.8623C239.095 42.561 238.976 42.272 238.763 42.0587L237.265 40.5603C237.052 40.3477 236.763 40.2283 236.461 40.2283C236.16 40.2283 235.871 40.3477 235.658 40.5603L234.503 41.7155C233.571 41.1302 232.546 40.7084 231.472 40.4682V38.7941C231.473 38.645 231.445 38.4971 231.389 38.359C231.332 38.221 231.249 38.0954 231.144 37.9896C231.039 37.8838 230.914 37.7998 230.777 37.7425C230.639 37.6851 230.491 37.6556 230.342 37.6556H228.266C227.966 37.6578 227.678 37.7788 227.467 37.992C227.255 38.2053 227.136 38.4936 227.136 38.7941V40.4682C226.065 40.7067 225.042 41.1287 224.114 41.7155L222.951 40.5603C222.846 40.4553 222.721 40.3719 222.584 40.3151C222.447 40.2582 222.3 40.229 222.152 40.229C222.003 40.229 221.856 40.2582 221.719 40.3151C221.582 40.3719 221.457 40.4553 221.352 40.5603L219.896 42.0587C219.683 42.272 219.564 42.561 219.564 42.8623C219.564 43.1635 219.683 43.4525 219.896 43.6659L221.051 44.821C220.466 45.751 220.042 46.7725 219.795 47.8429H218.163C217.861 47.8429 217.571 47.9628 217.358 48.1763C217.144 48.3898 217.024 48.6794 217.024 48.9813V51.0991C217.024 51.2486 217.054 51.3966 217.111 51.5347C217.168 51.6729 217.252 51.7984 217.358 51.9041C217.464 52.0098 217.589 52.0937 217.727 52.1509C217.865 52.2081 218.013 52.2375 218.163 52.2375H219.795C220.042 53.3079 220.466 54.3293 221.051 55.2594L219.896 56.4145C219.683 56.6279 219.564 56.9169 219.564 57.2181C219.564 57.5194 219.683 57.8083 219.896 58.0217L221.394 59.5201C221.499 59.6251 221.624 59.7085 221.761 59.7653C221.898 59.8222 222.045 59.8514 222.193 59.8514C222.342 59.8514 222.489 59.8222 222.626 59.7653C222.763 59.7085 222.888 59.6251 222.993 59.5201L224.156 58.3649C225.086 58.9508 226.107 59.3754 227.178 59.6205V61.2528C227.178 61.5533 227.297 61.8416 227.509 62.0549C227.72 62.2681 228.008 62.3891 228.308 62.3913H230.434C230.583 62.3913 230.731 62.3618 230.869 62.3044C231.006 62.2471 231.131 62.1631 231.236 62.0573C231.341 61.9515 231.425 61.8259 231.481 61.6879C231.537 61.5498 231.566 61.4019 231.564 61.2528V59.6205C232.637 59.3738 233.662 58.9494 234.595 58.3649L235.75 59.5201C235.963 59.7327 236.252 59.8521 236.553 59.8521C236.855 59.8521 237.144 59.7327 237.357 59.5201L238.855 58.0217C239.068 57.8083 239.187 57.5194 239.187 57.2181C239.187 56.9169 239.068 56.6279 238.855 56.4145L237.7 55.2594C238.282 54.3289 238.704 53.3075 238.947 52.2375H240.622C240.907 52.2142 241.172 52.0838 241.365 51.8726C241.557 51.6614 241.663 51.385 241.66 51.0991ZM229.807 54.8659C228.809 54.9713 227.803 54.7649 226.927 54.2752C226.051 53.7855 225.349 53.0364 224.916 52.1311C224.484 51.2258 224.342 50.2086 224.511 49.2196C224.68 48.2306 225.152 47.3182 225.86 46.608C226.569 45.8978 227.481 45.4247 228.469 45.2537C229.458 45.0827 230.475 45.2223 231.382 45.6531C232.288 46.084 233.038 46.7851 233.53 47.6599C234.021 48.5347 234.229 49.5402 234.126 50.5383C234.013 51.6435 233.524 52.6765 232.741 53.4643C231.958 54.2521 230.928 54.7469 229.823 54.8659H229.807Z" fill="white" stroke="#2E353A" stroke-linecap="round" stroke-linejoin="round"/>
<path d="M139.796 109.77V107.644C139.796 107.495 139.766 107.347 139.709 107.209C139.652 107.072 139.568 106.947 139.462 106.842C139.356 106.737 139.23 106.654 139.092 106.597C138.954 106.541 138.806 106.513 138.657 106.514H136.983C136.751 105.456 136.341 104.445 135.769 103.525L136.925 102.362C137.03 102.257 137.113 102.132 137.17 101.995C137.227 101.858 137.256 101.711 137.256 101.562C137.256 101.414 137.227 101.267 137.17 101.13C137.113 100.992 137.03 100.868 136.925 100.763L135.426 99.2561C135.213 99.0435 134.924 98.9241 134.623 98.9241C134.321 98.9241 134.032 99.0435 133.819 99.2561L132.664 100.42C131.734 99.8352 130.712 99.4108 129.642 99.1641V97.4899C129.64 97.1894 129.519 96.902 129.306 96.6903C129.092 96.4786 128.804 96.3599 128.504 96.3599H126.386C126.085 96.3599 125.797 96.4786 125.584 96.6903C125.37 96.902 125.25 97.1894 125.247 97.4899V99.1641C124.177 99.4108 123.156 99.8352 122.226 100.42L121.07 99.2561C120.857 99.0435 120.568 98.9241 120.267 98.9241C119.965 98.9241 119.677 99.0435 119.463 99.2561L117.965 100.763C117.86 100.868 117.776 100.992 117.72 101.13C117.663 101.267 117.633 101.414 117.633 101.562C117.633 101.711 117.663 101.858 117.72 101.995C117.776 102.132 117.86 102.257 117.965 102.362L119.12 103.525C118.534 104.455 118.11 105.476 117.864 106.547H116.19C116.041 106.546 115.893 106.574 115.755 106.631C115.617 106.687 115.492 106.77 115.386 106.875C115.28 106.98 115.196 107.105 115.139 107.243C115.081 107.38 115.052 107.528 115.052 107.677V109.803C115.052 109.952 115.081 110.1 115.139 110.238C115.196 110.375 115.28 110.5 115.386 110.605C115.492 110.71 115.617 110.793 115.755 110.85C115.893 110.906 116.041 110.934 116.19 110.933H117.864C118.111 112.006 118.535 113.031 119.12 113.964L117.965 115.119C117.752 115.332 117.633 115.621 117.633 115.922C117.633 116.224 117.752 116.513 117.965 116.726L119.463 118.224C119.677 118.437 119.965 118.556 120.267 118.556C120.568 118.556 120.857 118.437 121.07 118.224L122.226 117.061C123.156 117.645 124.177 118.07 125.247 118.316V119.991C125.247 120.14 125.277 120.287 125.334 120.425C125.391 120.563 125.475 120.688 125.581 120.793C125.687 120.898 125.813 120.981 125.951 121.037C126.089 121.093 126.237 121.122 126.386 121.121H128.504C128.653 121.122 128.801 121.093 128.939 121.037C129.077 120.981 129.202 120.898 129.308 120.793C129.414 120.688 129.498 120.563 129.555 120.425C129.613 120.287 129.642 120.14 129.642 119.991V118.316C130.712 118.07 131.734 117.645 132.664 117.061L133.819 118.224C134.032 118.437 134.321 118.556 134.623 118.556C134.924 118.556 135.213 118.437 135.426 118.224L136.925 116.726C137.137 116.513 137.257 116.224 137.257 115.922C137.257 115.621 137.137 115.332 136.925 115.119L135.769 113.964C136.355 113.032 136.777 112.007 137.017 110.933H138.691C138.84 110.93 138.987 110.897 139.123 110.837C139.26 110.777 139.383 110.69 139.486 110.582C139.588 110.474 139.669 110.346 139.722 110.207C139.775 110.067 139.8 109.919 139.796 109.77ZM127.959 113.696C126.927 113.804 125.887 113.591 124.981 113.084C124.075 112.577 123.349 111.802 122.902 110.866C122.454 109.929 122.308 108.877 122.483 107.854C122.658 106.831 123.146 105.887 123.879 105.153C124.612 104.418 125.555 103.929 126.578 103.752C127.6 103.575 128.653 103.719 129.59 104.165C130.527 104.61 131.304 105.335 131.812 106.24C132.32 107.145 132.536 108.185 132.429 109.217C132.311 110.363 131.802 111.434 130.988 112.249C130.175 113.064 129.105 113.575 127.959 113.696Z" fill="white" stroke="#2E353A" stroke-linecap="round" stroke-linejoin="round"/>
<path d="M286.192 49.0734H108.64C105.122 49.0734 102.27 51.9254 102.27 55.4435V103.333C102.27 106.851 105.122 109.703 108.64 109.703H286.192C289.71 109.703 292.562 106.851 292.562 103.333V55.4435C292.562 51.9254 289.71 49.0734 286.192 49.0734Z" fill="white" stroke="#2E353A" stroke-linecap="round" stroke-linejoin="round"/>
<path d="M286.627 65.0113H114.859" stroke="#2E353A" stroke-linecap="round" stroke-linejoin="round"/>
<path d="M286.627 78.2957H114.859" stroke="#2E353A" stroke-linecap="round" stroke-linejoin="round"/>
<path d="M286.627 91.5801H114.859" stroke="#2E353A" stroke-linecap="round" stroke-linejoin="round"/>
<path d="M119.672 120.007C119.672 120.007 117.605 118.241 117.354 117.496C117.124 116.317 116.785 115.163 116.341 114.047C115.621 112.482 112.992 111.084 112.155 109.226C111.318 107.367 110.205 104.111 109.644 103.483C109.083 102.856 108.255 103.14 107.97 104.898C107.685 106.656 110.975 110.967 111.184 111.595C111.394 112.222 107.744 111.134 105.4 109.628C103.056 108.121 101.617 104.982 100.202 102.99C98.7873 100.997 97.6321 102.395 97.6907 103.542C97.7493 104.689 101.96 111.159 102.772 113.52C103.584 115.88 106.288 118.417 107.794 119.706C109.301 120.995 112.607 121.514 112.607 121.514L114.826 123.724L119.672 120.007Z" fill="white" stroke="#2E353A" stroke-miterlimit="10"/>
<path d="M113.353 129.157L110.364 122.652C110.952 121.804 111.708 121.085 112.584 120.541C113.461 119.997 114.441 119.638 115.462 119.488C119.153 118.785 119.647 119.488 119.647 119.488L121.581 126.185C121.581 126.185 115.261 126.696 113.353 129.157Z" fill="#FF5722" stroke="#2E353A" stroke-linecap="round" stroke-linejoin="round"/>
<path d="M142.357 106.874C142.357 106.874 133.392 132.538 132.162 135.878C131.844 136.715 131.232 138.138 130.487 139.762C128.922 137.042 125.465 131.04 124.435 128.495C123.029 125.147 121.087 124.31 117.931 124.628C114.776 124.946 111.955 128.319 111.955 130.78C111.955 135.443 116.081 141.662 117.906 145.848C119.865 150.284 121.179 151.942 124.486 155.65C128.671 160.346 133.417 158.722 136.623 154.152C139.084 150.636 145.354 137.837 145.354 137.837C145.354 137.837 143.764 110.875 142.357 106.874Z" fill="#FF5722" stroke="#2E353A" stroke-linecap="round" stroke-linejoin="round"/>
<path d="M130.479 139.72C130.479 139.72 127.014 144.701 126.687 147.338" stroke="#2E353A" stroke-linecap="round" stroke-linejoin="round"/>
<path d="M217.317 116.726C217.317 116.726 219.77 115.554 220.205 114.909C220.728 113.825 221.353 112.794 222.072 111.829C223.169 110.506 226.107 109.845 227.387 108.255C228.668 106.664 230.585 103.818 231.305 103.366C232.025 102.914 232.736 103.366 232.577 105.166C232.418 106.966 228.116 110.255 227.764 110.774C227.413 111.293 231.824 109.761 234.544 110.322C237.265 110.883 240.504 109.661 242.915 109.234C245.326 108.807 245.167 110.607 244.347 111.402C243.526 112.197 235.976 113.855 233.732 114.968C231.489 116.081 229.547 116.952 227.697 117.797C226.369 118.452 225.08 119.184 223.838 119.99L221.126 121.556L217.317 116.726Z" fill="white" stroke="#2E353A" stroke-linecap="round" stroke-linejoin="round"/>
<path d="M223.244 126.528L226.232 120.024C225.645 119.176 224.889 118.457 224.012 117.913C223.135 117.368 222.156 117.01 221.135 116.86C217.443 116.157 216.949 116.86 216.949 116.86L215.016 123.556C215.016 123.556 221.344 124.067 223.244 126.528Z" fill="#FF5722" stroke="#2E353A" stroke-miterlimit="10"/>
<path d="M218.707 121.941C215.543 121.589 213.609 122.468 212.203 125.808C211.131 128.319 207.725 134.355 206.151 137.075C205.397 135.451 204.786 134.062 204.477 133.191C203.246 129.843 194.281 104.187 194.281 104.187C192.875 108.23 191.293 135.158 191.293 135.158C191.293 135.158 197.989 147.949 200.501 151.473C201.949 153.541 203.096 155.458 205.749 155.851C213.551 157.014 215.886 149.673 218.305 144.249C219.82 140.825 221.327 137.393 222.733 133.92C223.42 132.245 224.726 129.994 224.726 128.127C224.684 125.649 221.871 122.309 218.707 121.941Z" fill="#FF5722" stroke="#2E353A" stroke-linecap="round" stroke-linejoin="round"/>
<path d="M206.151 137.092C206.151 137.092 209.666 142.064 210.336 144.701" stroke="#2E353A" stroke-linecap="round" stroke-linejoin="round"/>
<path d="M156.278 59.7126C156.278 59.7126 153.817 68.8535 154.344 69.7576C154.871 70.6616 156.102 70.2849 155.399 72.0428C154.696 73.8006 153.114 77.1489 153.465 78.5552C153.817 79.9615 155.75 81.0162 155.75 81.0162C155.75 81.0162 156.629 87.3445 157.508 88.5499C158.387 89.7553 163.133 89.0773 163.133 89.0773L163.485 93.8235L177.556 92.9864L177.029 84.5487L176.326 58.524L156.278 59.7126Z" fill="white"/>
<g style="mix-blend-mode:multiply" opacity="0.5">
<path d="M163.1 89.0773L163.452 93.8235L177.523 92.9864L176.995 84.5487L176.694 73.5997C174.861 73.5997 173.187 73.675 172.668 73.675C171.387 73.675 168.591 73.4574 167.947 73.675C167.302 73.8927 166.448 74.102 166.448 74.102L163.234 77.534C163.234 77.534 163.443 82.0374 161.945 84.398C160.689 86.3735 157.391 87.152 157.207 88.0476C157.283 88.2353 157.372 88.4172 157.475 88.5918C157.642 88.7173 157.826 88.8512 158.027 88.9852C159.551 89.5962 163.1 89.0773 163.1 89.0773Z" fill="#FF5722"/>
</g>
<path d="M156.278 59.7126C156.278 59.7126 153.817 68.8535 154.344 69.7576C154.871 70.6616 156.102 70.2849 155.399 72.0428C154.696 73.8006 153.114 77.1489 153.465 78.5552C153.817 79.9615 155.75 81.0162 155.75 81.0162C155.75 81.0162 156.629 87.3445 157.508 88.5499C158.387 89.7553 163.133 89.0773 163.133 89.0773L163.485 93.8235L177.556 92.9864L177.029 84.5487L176.326 58.524L156.278 59.7126Z" stroke="#2E353A" stroke-miterlimit="10"/>
<path d="M157.533 72.3776C157.533 73.0891 157.274 73.6583 156.956 73.6583C156.638 73.6583 156.37 73.0891 156.37 72.3776C156.37 71.6661 156.629 71.0969 156.956 71.0969C157.282 71.0969 157.533 71.6661 157.533 72.3776Z" fill="#2E353A"/>
<path d="M173.128 52.6812C172.291 52.8151 165.594 52.6812 160.287 53.5601C154.98 54.439 153.432 54.7906 153.591 57.0758C153.75 59.3611 153.239 60.24 155.173 61.1189C155.996 61.5508 156.888 61.8342 157.81 61.956C157.81 61.956 157.282 64.417 157.106 66.1414C156.931 67.8658 160.095 69.8329 160.095 69.8329C159.994 71.0101 160.053 72.1956 160.271 73.357C160.622 74.1941 161.501 74.4117 162.028 73.7086C162.556 73.0054 162.907 69.6571 163.435 71.0634C163.962 72.4697 166.072 83.0252 167.486 84.2557C168.901 85.4862 175.221 84.7831 176.979 84.4315C178.737 84.0799 182.076 76.6969 183.675 72.2939C185.274 67.8909 184.512 60.1647 182.269 56.6489C180.026 53.1332 175.413 52.3296 173.128 52.6812Z" fill="white" stroke="#2E353A" stroke-miterlimit="10"/>
<path d="M182.805 57.712C182.177 59.3862 181.532 61.4789 179.749 61.6128C176.962 61.8304 176.962 58.1808 175.028 56.8917C173.095 55.6026 176.317 63.3288 174.819 61.1859C173.321 59.043 169.453 56.8917 166.021 56.6824C162.589 56.4731 167.947 62.9019 166.666 62.9019C165.385 62.9019 163.234 58.8253 163.234 57.7539C163.234 56.6824 160.011 56.6489 156.362 56.6489C152.712 56.6489 154.219 58.7918 154.219 60.0809C154.22 60.2646 154.272 60.4443 154.369 60.5999C154.628 60.795 154.909 60.9581 155.206 61.0854C156.029 61.5173 156.922 61.8007 157.843 61.9225C157.843 61.9225 157.316 64.3835 157.14 66.1079C156.964 67.8323 160.128 69.7994 160.128 69.7994C160.028 70.9767 160.087 72.1621 160.304 73.3235C160.656 74.1606 161.535 74.3782 162.062 73.6751C162.589 72.9719 162.941 69.6236 163.468 71.0299C163.996 72.4362 166.105 82.9917 167.52 84.2222C168.934 85.4527 175.254 84.7496 177.012 84.398C178.77 84.0464 182.11 76.6634 183.709 72.2604C185.123 68.368 184.646 61.5291 182.805 57.712Z" fill="#2E353A"/>
<path d="M160.112 93.2961L156.244 100.328C156.244 100.328 165.913 97.515 171.194 97.515C174.908 97.5816 178.61 97.9342 182.269 98.5697L179.808 91.7141C179.808 91.7141 166.44 90.3078 160.112 93.2961Z" fill="#FF5722" stroke="#2E353A" stroke-miterlimit="10"/>
<path d="M157.651 99.4487C157.651 99.4487 151.322 102.797 147.606 104.546C145.889 105.401 144.129 106.164 142.332 106.832C142.332 106.832 146.727 162.79 146.727 165.779C146.727 168.767 146.551 168.943 147.606 169.822C148.66 170.701 154.118 171.102 163.786 170.927C173.455 170.751 185.55 168.767 186.463 168.767C187.173 168.716 187.862 168.499 188.472 168.132C189.083 167.766 189.599 167.26 189.978 166.658C191.033 165.076 194.373 105.425 194.549 104.714C194.725 104.002 182.947 98.9129 181.717 98.5614C180.486 98.2098 173.48 93.4803 157.651 99.4487Z" fill="#FF5722" stroke="#2E353A" stroke-miterlimit="10"/>
<path d="M178.963 144.249C177.856 145.258 176.672 146.179 175.422 147.003" stroke="#2E353A" stroke-linecap="round" stroke-linejoin="round"/>
<path d="M191.887 121.321C191.887 121.321 189.443 132.111 182.311 140.725" stroke="#2E353A" stroke-linecap="round" stroke-linejoin="round"/>
<path d="M161.945 71.055C162.178 72.6922 162.32 74.3409 162.372 75.9937C162.372 77.919 161.083 78.9905 161.945 79.8527C162.807 80.7149 163.443 80.2796 164.088 78.7812C164.78 77.0059 165.066 75.0982 164.925 73.1979C164.732 71.7163 164.515 68.4768 161.945 71.055Z" fill="white" stroke="#2E353A" stroke-miterlimit="10"/>
<path d="M171.412 245.36L176.125 197.177L183.458 188.271" stroke="white" stroke-miterlimit="10"/>
</svg>
