<svg width="727" height="428" viewBox="0 0 727 428" fill="none" xmlns="http://www.w3.org/2000/svg">
<mask id="mask0" mask-type="alpha" maskUnits="userSpaceOnUse" x="0" y="0" width="727" height="428">
<rect width="727" height="428" fill="#C4C4C4"/>
</mask>
<g mask="url(#mask0)">
<path d="M665.308 -9.99373C696.644 11.4624 723.574 42.5738 761.765 89.2408C799.955 135.908 849.408 197.594 837.657 237.824C825.905 278.055 752.462 296.292 696.644 337.595C640.827 378.898 602.147 443.267 552.695 459.895C503.242 475.987 443.019 444.34 368.595 409.473C293.683 375.144 204.571 337.595 201.633 280.2C199.185 223.342 283.401 147.172 345.583 101.042C407.276 55.4474 447.425 40.4282 479.74 19.5084C512.545 -0.874874 538.006 -27.1586 568.363 -34.6683C598.719 -42.1779 634.462 -30.9134 665.308 -9.99373Z" fill="#FFCDBD"/>
<path d="M372.073 -194.524C390.317 -179.213 405.218 -158.146 426.195 -126.681C447.173 -95.2163 474.258 -53.6876 464.46 -29.2988C454.662 -4.91009 407.707 1.97389 370.341 24.3331C332.974 46.6923 304.89 84.4967 273.008 91.8458C241.158 98.8602 205.509 75.4194 161.196 49.1002C116.544 23.0858 63.2276 -5.80697 64.9097 -41.8084C66.8644 -77.445 124.09 -119.825 165.725 -144.808C207.022 -169.485 233 -176.4 254.45 -187.477C276.172 -198.189 293.673 -213.034 313.079 -215.862C332.485 -218.689 354.103 -209.47 372.073 -194.524Z" fill="#FFCDBD"/>
</g>
</svg>
