<svg width="1440" height="428" viewBox="0 0 1440 428" fill="none" xmlns="http://www.w3.org/2000/svg">
<mask id="mask0" style="mask-type:alpha" maskUnits="userSpaceOnUse" x="0" y="0" width="1440" height="428">
<rect width="1440" height="428" fill="#C4C4C4"/>
</mask>
<g mask="url(#mask0)">
<path d="M1454.45 -10.0049C1491.99 11.4424 1524.24 42.541 1569.99 89.1888C1615.73 135.837 1674.96 197.498 1660.89 237.711C1646.81 277.925 1558.84 296.155 1491.99 337.441C1425.13 378.727 1378.8 443.069 1319.56 459.69C1260.33 475.776 1188.19 444.141 1099.05 409.289C1009.32 374.974 902.581 337.441 899.062 280.07C896.13 223.234 997.003 147.096 1071.49 100.985C1145.38 55.4093 1193.47 40.3962 1232.18 19.4851C1271.47 -0.88977 1301.97 -27.1627 1338.33 -34.6692C1374.69 -42.1758 1417.5 -30.916 1454.45 -10.0049Z" fill="#FF5722"/>
<path d="M1080.95 -169.706C1098.04 -155.339 1111.19 -135.083 1129.53 -104.768C1147.87 -74.4532 1171.46 -34.4137 1159.19 -9.67108C1146.93 15.0715 1098.56 24.1672 1058.47 48.2073C1018.38 72.2474 986.268 111.217 953.173 120.055C920.144 128.559 886.137 106.931 843.597 82.8534C800.685 59.095 749.24 32.8857 754.357 -3.02723C759.717 -38.5901 821.881 -83.5067 866.555 -110.362C910.856 -136.897 937.91 -145.021 960.755 -157.071C983.844 -168.771 1003.03 -184.383 1023.02 -188.124C1043.01 -191.866 1064.1 -183.723 1080.95 -169.706Z" fill="#FF5722"/>
</g>
</svg>
