<svg width="1439" height="326" viewBox="0 0 1439 326" fill="none" xmlns="http://www.w3.org/2000/svg">
<mask id="mask0" mask-type="alpha" maskUnits="userSpaceOnUse" x="-1" y="0" width="1440" height="326">
<rect x="-1" width="1440" height="326" fill="#C4C4C4"/>
</mask>
<g mask="url(#mask0)">
<path d="M1114.77 443.061C942.597 491.1 810.252 529.531 654.779 545.713C500.591 562.4 324.56 557.344 197.355 524.475C71.4344 491.1 -5.65955 430.419 -95.6025 362.153C-185.546 294.393 -289.622 219.553 -242.081 164.94C-194.54 110.833 3.33472 76.9528 180.651 53.6918C357.967 29.9251 514.725 16.7775 721.594 7.1697C928.463 -2.94379 1184.16 -9.01189 1357.62 36.4988C1529.8 82.5152 1618.45 181.122 1558.06 258.996C1497.67 337.375 1285.66 395.022 1114.77 443.061Z" fill="#FF5722"/>
</g>
</svg>
